<svg width="20" height="20" viewBox="0 0 20 20" fill="none" xmlns="http://www.w3.org/2000/svg">
<circle cx="10" cy="10" r="10" fill="#FF6060"/>
<path d="M10.748 5.04688L10.584 12.0674H9.17578L9.00488 5.04688H10.748ZM8.95703 14.2207C8.95703 13.9701 9.03906 13.7604 9.20312 13.5918C9.37174 13.4186 9.60417 13.332 9.90039 13.332C10.1921 13.332 10.4222 13.4186 10.5908 13.5918C10.7594 13.7604 10.8438 13.9701 10.8438 14.2207C10.8438 14.4622 10.7594 14.6696 10.5908 14.8428C10.4222 15.0114 10.1921 15.0957 9.90039 15.0957C9.60417 15.0957 9.37174 15.0114 9.20312 14.8428C9.03906 14.6696 8.95703 14.4622 8.95703 14.2207Z" fill="white"/>
</svg>
