<svg width="17" height="17" viewBox="0 0 17 17" fill="none" xmlns="http://www.w3.org/2000/svg">
<path d="M0.292893 15.2929C-0.0976311 15.6834 -0.0976311 16.3166 0.292893 16.7071C0.683418 17.0976 1.31658 17.0976 1.70711 16.7071L0.292893 15.2929ZM16.1421 1.85786C16.1421 1.30558 15.6944 0.857864 15.1421 0.857864L6.14214 0.857865C5.58985 0.857865 5.14214 1.30558 5.14214 1.85786C5.14214 2.41015 5.58985 2.85786 6.14214 2.85786L14.1421 2.85786L14.1421 10.8579C14.1421 11.4101 14.5899 11.8579 15.1421 11.8579C15.6944 11.8579 16.1421 11.4101 16.1421 10.8579L16.1421 1.85786ZM1.70711 16.7071L15.8492 2.56497L14.435 1.15076L0.292893 15.2929L1.70711 16.7071Z" fill="white"/>
</svg>
