<svg width="38" height="38" viewBox="0 0 38 38" fill="none" xmlns="http://www.w3.org/2000/svg">
<path d="M2.33334 19.0007H35.6667M2.33334 19.0007C2.33334 28.2054 9.79526 35.6673 19 35.6673M2.33334 19.0007C2.33334 9.79591 9.79526 2.33398 19 2.33398M35.6667 19.0007C35.6667 28.2054 28.2048 35.6673 19 35.6673M35.6667 19.0007C35.6667 9.79591 28.2048 2.33398 19 2.33398M19 2.33398C23.1688 6.89791 25.5379 12.8207 25.6667 19.0007C25.5379 25.1806 23.1688 31.1034 19 35.6673M19 2.33398C14.8312 6.89791 12.4621 12.8207 12.3333 19.0007C12.4621 25.1806 14.8312 31.1034 19 35.6673" stroke="#BEBEBE" stroke-width="3" stroke-linecap="round" stroke-linejoin="round"/>
</svg>
