<svg width="40" height="40" viewBox="0 0 40 40" fill="none" xmlns="http://www.w3.org/2000/svg">
<path d="M3.3335 20.0007H36.6668M3.3335 20.0007C3.3335 29.2054 10.7954 36.6673 20.0002 36.6673M3.3335 20.0007C3.3335 10.7959 10.7954 3.33398 20.0002 3.33398M36.6668 20.0007C36.6668 29.2054 29.2049 36.6673 20.0002 36.6673M36.6668 20.0007C36.6668 10.7959 29.2049 3.33398 20.0002 3.33398M20.0002 3.33398C24.169 7.89791 26.5381 13.8207 26.6668 20.0007C26.5381 26.1806 24.169 32.1034 20.0002 36.6673M20.0002 3.33398C15.8314 7.89791 13.4622 13.8207 13.3335 20.0007C13.4622 26.1806 15.8314 32.1034 20.0002 36.6673" stroke="#BEBEBE" stroke-width="3" stroke-linecap="round" stroke-linejoin="round"/>
</svg>
